<?xml version="1.0" standalone="no"?>
<!DOCTYPE svg PUBLIC "-//W3C//DTD SVG 20010904//EN"
 "http://www.w3.org/TR/2001/REC-SVG-20010904/DTD/svg10.dtd">
<svg version="1.0" xmlns="http://www.w3.org/2000/svg"
 width="450.000000pt" height="450.000000pt" viewBox="0 0 450.000000 450.000000"
 preserveAspectRatio="xMidYMid meet">
<metadata>
Created by potrace 1.14, written by Peter Selinger 2001-2017
</metadata>
<g transform="translate(0.000000,450.000000) scale(0.100000,-0.100000)"
fill="#000000" stroke="none">
<path d="M0 2250 l0 -2250 2250 0 2250 0 0 660 c0 363 -3 660 -7 660 -34 -1
-50 -56 -21 -71 30 -16 7 -36 -25 -22 -15 7 -29 8 -41 1 -21 -12 -50 8 -42 29
20 51 -58 60 -122 13 -60 -43 -65 -58 -57 -166 l7 -94 -34 0 c-18 0 -57 3 -85
6 -42 5 -53 11 -53 25 0 39 71 323 82 331 7 4 25 8 40 8 24 0 28 -5 33 -37 4
-21 7 -41 8 -46 1 -4 12 0 25 8 16 12 21 22 16 41 -5 19 -2 24 14 24 11 0 22
-5 24 -10 6 -18 70 1 75 22 3 10 14 18 24 18 11 0 16 -5 13 -13 -7 -18 73 -49
103 -41 l23 6 0 1574 0 1574 -2250 0 -2250 0 0 -2250z m567 1210 c183 -43 273
-135 273 -279 0 -158 -160 -275 -453 -332 -125 -24 -157 -25 -157 -1 0 9 11
150 25 312 14 162 25 304 25 314 0 18 6 19 99 13 55 -3 139 -15 188 -27z
m2357 -137 c-19 -91 -32 -168 -30 -171 3 -2 26 3 52 12 54 18 146 21 175 6 29
-16 24 -57 -11 -90 -16 -15 -60 -43 -97 -61 -38 -19 -70 -35 -72 -37 -8 -4 73
-83 101 -98 51 -27 109 -8 94 31 -7 19 -30 19 -46 0 -16 -19 -30 -10 -30 19 0
55 109 58 139 4 30 -53 -18 -114 -97 -125 -60 -8 -119 24 -176 97 -29 36 -52
57 -60 54 -8 -3 -19 -34 -26 -70 -7 -35 -15 -66 -19 -68 -3 -2 -26 -2 -51 1
l-45 5 2 122 c2 66 6 158 9 204 l6 82 29 0 c19 0 29 5 29 15 0 10 -10 15 -30
15 -23 0 -30 4 -30 20 0 14 9 21 35 26 22 4 35 12 35 21 0 12 -8 14 -36 9 -33
-7 -35 -6 -32 16 2 16 11 24 32 28 44 8 45 30 2 30 -29 0 -36 4 -36 19 0 16
12 21 73 31 39 6 77 13 82 15 6 2 22 4 36 4 l26 1 -33 -167z m114 111 c4 -26
-22 -38 -49 -24 -21 12 -21 12 -13 35 10 24 58 16 62 -11z m-14 -69 c21 -22 9
-45 -24 -45 -15 0 -30 7 -34 15 -5 14 18 45 34 45 5 0 15 -7 24 -15z m-6 -109
c-4 -27 -55 -36 -65 -10 -8 22 21 44 48 37 14 -4 19 -12 17 -27z m-1731 -70
c-7 -17 74 -50 102 -41 11 3 21 0 24 -9 4 -9 -3 -16 -17 -20 -32 -8 -41 -53
-14 -67 30 -16 7 -36 -25 -22 -16 7 -29 8 -41 1 -23 -13 -41 4 -41 40 0 22 -5
28 -29 30 -46 6 -71 -5 -115 -49 l-42 -42 7 -100 7 -100 -84 7 c-46 4 -85 9
-88 12 -9 8 70 338 82 346 7 4 27 8 45 8 32 0 32 0 32 -52 l0 -51 25 23 c18
17 23 30 19 47 -5 18 -2 23 14 23 11 0 22 -5 24 -10 6 -18 70 1 75 22 3 10 14
18 25 18 13 0 18 -5 15 -14z m325 -8 c6 -18 209 -18 223 0 16 19 48 4 42 -20
-4 -13 7 -32 34 -59 32 -32 43 -38 67 -33 21 4 31 2 35 -10 4 -10 1 -19 -8
-21 -8 -3 -22 -7 -30 -10 -8 -2 -15 -15 -15 -29 0 -13 -3 -31 -6 -39 -3 -10 4
-18 21 -24 23 -7 24 -10 12 -27 -11 -15 -18 -16 -34 -8 -17 9 -25 6 -48 -18
-15 -16 -41 -34 -57 -41 -24 -10 -28 -16 -24 -36 5 -19 3 -23 -18 -23 -15 0
-27 7 -30 18 -5 14 -18 18 -59 19 -28 1 -64 6 -79 12 -24 9 -29 7 -38 -9 -10
-19 -40 -27 -53 -14 -3 4 1 17 9 30 15 22 14 25 -13 49 -19 17 -38 24 -58 22
-22 -1 -31 3 -33 16 -3 12 3 17 21 17 23 0 25 3 24 50 -1 42 -4 50 -21 52 -34
5 -26 34 7 30 21 -2 39 6 67 31 35 32 37 36 21 51 -14 15 -14 18 -1 26 21 13
38 12 42 -2z m656 -37 c-3 -44 -1 -48 12 -36 28 25 105 55 143 55 54 0 103
-26 128 -67 12 -19 34 -81 49 -138 l28 -102 -82 -12 c-129 -18 -118 -28 -110
99 6 93 4 113 -10 135 -27 41 -91 29 -144 -27 -19 -21 -24 -41 -30 -119 l-7
-94 -47 -3 c-44 -3 -47 -1 -52 25 -9 45 -46 281 -46 297 0 9 21 17 68 23 112
17 104 20 100 -36z m1158 36 c6 -17 212 -16 223 2 12 19 43 1 37 -21 -7 -31
69 -100 102 -91 15 3 27 1 33 -8 14 -23 11 -29 -16 -29 -27 0 -30 -4 -39 -57
-4 -27 -2 -33 20 -40 22 -7 23 -10 11 -27 -11 -15 -18 -16 -33 -8 -16 8 -24 5
-47 -18 -16 -16 -42 -34 -58 -41 -25 -10 -29 -16 -25 -36 5 -19 3 -23 -18 -23
-16 0 -26 7 -29 21 -4 16 -11 20 -28 16 -12 -3 -46 -1 -76 4 -47 9 -58 8 -73
-6 -12 -11 -26 -14 -40 -10 l-22 7 20 21 21 20 -31 29 c-23 22 -39 28 -62 26
-23 -2 -32 2 -34 15 -3 13 3 17 22 17 24 0 26 3 26 49 0 44 -3 50 -22 53 -35
5 -29 34 5 30 21 -2 39 6 66 31 34 30 36 36 24 52 -10 15 -10 20 0 27 18 12
37 10 43 -5z m-2561 -669 c-3 -51 -8 -126 -11 -166 l-5 -73 38 16 c114 48 218
20 263 -70 21 -42 25 -68 28 -156 5 -122 14 -112 -114 -125 l-72 -6 19 78 c23
95 24 162 5 209 -13 31 -19 35 -53 35 -21 0 -54 -8 -73 -18 -32 -15 -36 -22
-42 -72 -3 -30 -6 -92 -7 -136 -1 -93 3 -89 -93 -99 -55 -6 -66 -4 -71 9 -5
12 0 16 23 16 33 0 43 11 34 35 -5 12 -14 15 -35 11 -31 -6 -50 11 -28 25 8 5
24 9 37 9 17 0 22 6 22 25 0 22 -4 25 -35 25 -24 0 -35 5 -35 15 0 10 10 15
30 15 27 0 30 3 30 30 0 28 -3 30 -35 30 -24 0 -35 5 -35 15 0 10 10 15 30 15
25 0 30 4 30 25 0 22 -4 25 -32 23 -24 -2 -33 2 -36 15 -3 13 3 17 27 17 29 0
31 2 31 36 0 34 -1 35 -30 29 -26 -6 -30 -4 -30 14 0 16 6 21 25 21 22 0 25 4
25 36 0 34 -1 35 -30 29 -26 -6 -30 -4 -30 14 0 16 6 21 25 21 20 0 25 5 25
25 0 22 -3 24 -30 19 -19 -4 -30 -2 -30 5 0 6 -1 14 -2 18 -3 6 189 47 240 52
10 1 11 -20 7 -91z m1555 45 c0 -10 -22 -151 -48 -313 l-48 -295 -78 2 c-43 1
-80 4 -82 6 -3 2 -2 11 2 20 4 12 14 15 35 10 27 -5 29 -3 29 25 0 26 -4 31
-36 36 -43 9 -41 30 4 34 28 3 32 7 32 33 0 27 -3 29 -35 29 -24 0 -35 5 -35
15 0 10 10 15 34 15 26 0 35 5 40 23 11 42 7 47 -34 47 -33 0 -40 3 -40 20 0
17 7 20 40 20 36 0 40 3 40 25 0 20 -5 25 -24 25 -36 0 -55 10 -49 26 3 8 19
14 39 14 31 0 34 3 34 30 0 28 -2 30 -41 30 -33 0 -40 3 -37 18 2 12 14 18 41
20 31 3 37 7 37 26 0 20 -7 25 -40 30 -31 5 -40 11 -40 26 0 19 7 20 130 20
117 0 130 -2 130 -17z m-1954 -190 c-3 -21 -9 -55 -12 -75 l-7 -38 47 0 c39 0
46 -3 46 -19 0 -17 -8 -20 -52 -23 -41 -2 -54 -7 -56 -20 -3 -15 4 -18 35 -18
50 0 67 -12 58 -39 -5 -18 -14 -21 -55 -21 l-49 0 -10 -52 c-5 -29 -14 -73
-18 -97 -7 -40 -12 -46 -42 -53 -18 -5 -36 -6 -40 -3 -3 4 -8 54 -9 111 l-4
104 -44 0 c-44 0 -49 5 -38 34 4 11 19 16 45 16 31 0 37 3 32 16 -5 12 -15 15
-48 10 -38 -6 -43 -4 -53 19 -7 14 -12 28 -12 30 0 3 25 5 55 5 l55 0 0 64 0
65 43 5 c23 3 60 7 82 9 22 2 44 4 49 5 5 1 6 -15 2 -35z m3310 5 c-4 -18 -9
-52 -13 -75 l-6 -43 47 0 c40 0 47 -3 44 -17 -2 -14 -16 -19 -53 -23 -37 -4
-51 -9 -53 -22 -3 -15 4 -18 35 -18 49 0 64 -10 56 -38 -5 -19 -12 -22 -54
-22 -55 0 -49 9 -73 -118 -8 -40 -16 -75 -18 -77 -2 -3 -20 -6 -39 -7 l-34 -3
-5 105 -5 105 -42 3 c-24 2 -43 7 -43 12 0 27 15 40 46 40 25 0 34 4 34 16 0
14 -7 15 -45 10 -42 -7 -46 -6 -55 19 -6 14 -10 28 -10 31 0 2 25 4 56 4 l57
0 -6 64 -6 65 52 5 c29 3 68 8 87 9 19 2 39 5 44 5 5 1 6 -13 2 -30z m-2191
-88 c-8 -26 58 -37 90 -16 13 9 31 13 40 10 14 -6 13 -10 -6 -30 -19 -20 -20
-26 -8 -40 9 -11 23 -14 45 -11 22 4 34 1 38 -8 6 -17 -2 -25 -26 -25 -12 0
-18 -7 -18 -23 0 -23 -5 -24 -115 -37 -63 -7 -115 -16 -115 -19 0 -29 26 -83
51 -107 26 -25 38 -29 87 -29 41 0 71 7 105 24 38 20 50 22 60 12 9 -10 8 -15
-7 -27 -18 -13 -18 -15 -3 -32 9 -10 17 -21 17 -25 0 -13 -36 -13 -52 1 -26
22 -102 3 -106 -26 -4 -29 -52 -32 -52 -3 0 16 -10 21 -47 27 -40 6 -49 4 -63
-13 -12 -15 -21 -18 -38 -12 -20 7 -21 12 -12 30 7 11 10 21 8 22 -2 1 -18 13
-37 26 -28 20 -37 22 -59 12 -20 -10 -28 -9 -39 2 -13 13 -11 16 16 25 30 11
30 11 17 44 -12 26 -20 33 -42 33 -45 0 -44 31 0 39 20 4 36 12 36 19 0 7 3
22 6 34 4 16 0 23 -16 28 -20 6 -21 9 -7 22 11 12 19 13 36 4 16 -9 26 -8 46
5 29 19 31 27 10 44 -8 7 -12 16 -9 21 10 16 43 9 57 -11 19 -28 63 -18 71 15
4 17 11 22 26 18 14 -4 19 -11 15 -23z m1755 9 c25 -6 53 -17 62 -26 25 -22
24 -79 -1 -93 -29 -15 -87 -12 -105 5 -15 16 -12 45 5 45 16 0 24 -5 22 -12
-2 -5 8 -8 22 -8 30 0 34 25 6 40 -29 15 -94 12 -119 -6 -41 -29 -25 -55 58
-96 41 -20 85 -49 98 -63 69 -81 -37 -185 -189 -185 -87 0 -194 55 -168 87 16
18 27 16 59 -11 37 -31 100 -40 144 -22 69 29 54 82 -39 141 -110 71 -126 138
-42 182 58 30 119 38 187 22z m-526 -21 c90 -27 166 -148 166 -262 l0 -54 -63
-15 c-199 -50 -390 -35 -427 32 -40 75 34 147 194 187 54 13 64 19 55 30 -17
21 -85 36 -127 28 -20 -3 -54 -16 -75 -27 -51 -28 -68 -11 -28 27 60 57 207
83 305 54z m-1821 -74 c3 -3 -12 -42 -34 -87 -21 -44 -39 -89 -39 -99 0 -20
-16 -23 -40 -8 -12 8 -11 16 9 57 29 61 81 143 90 143 4 0 10 -3 14 -6z m2149
-111 c22 -20 23 -31 1 -55 -29 -32 -113 -13 -113 25 0 41 77 62 112 30z
m-2541 -419 c30 -9 68 -27 86 -40 67 -50 50 -144 -32 -184 -83 -40 -229 -15
-256 44 -14 30 3 80 29 92 68 28 153 19 173 -18 10 -18 8 -25 -11 -40 -23 -19
-75 -24 -85 -9 -3 5 4 11 15 13 26 4 30 22 6 26 -37 7 -66 -7 -66 -33 0 -32
26 -45 90 -45 119 0 138 117 23 149 -120 34 -243 -13 -243 -92 0 -47 32 -73
177 -146 129 -66 166 -97 182 -158 22 -77 -18 -141 -114 -185 -66 -30 -215
-33 -287 -5 -88 34 -114 103 -60 157 51 50 151 52 199 4 44 -44 13 -104 -53
-104 -48 0 -64 9 -64 36 0 18 6 24 21 24 11 0 17 -4 14 -10 -3 -5 3 -10 14
-10 25 0 29 35 5 44 -26 10 -79 7 -92 -6 -20 -20 -14 -66 11 -82 33 -22 97
-29 144 -17 79 22 108 100 58 159 -14 16 -65 58 -115 92 -153 104 -187 154
-160 235 33 100 232 156 391 109z m2039 -104 c0 -25 27 -37 50 -22 10 6 23 7
31 1 11 -7 11 -11 -5 -22 -22 -16 -16 -47 10 -47 8 0 14 -6 11 -12 -2 -8 -17
-12 -36 -10 -26 3 -34 -1 -38 -17 -7 -29 -34 -36 -40 -10 -5 18 -11 20 -43 15
-46 -7 -56 1 -28 24 l21 17 -22 22 c-25 25 -20 46 9 31 29 -15 53 -2 46 26 -5
19 -2 24 14 24 13 0 20 -7 20 -20z m-843 -174 c-7 -18 69 -48 101 -40 13 4 22
2 22 -5 0 -17 17 -14 107 20 46 18 85 30 86 28 2 -2 29 -60 61 -129 32 -69 61
-128 65 -133 4 -4 40 51 80 123 40 71 74 130 75 130 13 0 66 -23 66 -29 0 -4
-52 -81 -116 -171 -90 -129 -120 -164 -135 -163 -11 2 -29 -2 -39 -7 -30 -16
-37 10 -9 31 22 16 23 19 8 34 -13 14 -20 14 -43 4 -23 -11 -29 -10 -37 2 -6
10 -2 16 16 23 29 11 29 14 11 39 -11 14 -19 16 -41 7 -46 -18 -63 8 -18 29
26 12 26 12 6 32 -16 16 -24 18 -45 10 -38 -14 -59 11 -23 27 30 14 31 23 6
46 -15 13 -24 15 -46 6 -23 -9 -30 -8 -37 4 -12 21 -35 10 -41 -20 -3 -18 1
-28 15 -35 30 -16 7 -36 -25 -22 -16 7 -29 8 -41 1 -23 -13 -41 4 -41 40 0 22
-5 28 -29 30 -46 6 -71 -5 -115 -49 l-42 -42 7 -100 7 -100 -84 7 c-46 4 -85
9 -88 12 -9 8 69 338 82 346 7 4 27 8 45 8 32 0 32 0 32 -52 l0 -51 25 23 c18
17 23 30 19 47 -5 18 -2 23 14 23 11 0 22 -5 24 -10 6 -18 70 1 75 22 3 10 14
18 25 18 13 0 18 -5 15 -14z m558 -11 c0 -31 -49 -28 -53 3 -3 20 0 23 25 20
20 -2 28 -8 28 -23z m868 13 c7 -20 -4 -38 -22 -38 -23 0 -41 19 -34 36 6 17
50 18 56 2z m-178 -135 l65 -137 71 125 c38 68 73 127 78 132 9 9 73 -12 69
-23 -2 -5 -55 -83 -118 -174 -88 -126 -119 -164 -132 -160 -10 3 -26 0 -37 -5
-14 -8 -22 -7 -31 4 -9 11 -6 16 14 27 23 12 25 16 13 32 -11 16 -17 17 -36 6
-24 -12 -51 -7 -51 9 0 6 11 13 25 17 30 7 31 15 6 38 -16 14 -23 15 -41 6
-15 -8 -25 -9 -32 -2 -13 13 -2 32 18 32 18 0 18 24 0 39 -9 8 -21 8 -39 2
-38 -15 -57 11 -21 28 24 11 25 13 11 34 -15 23 -26 25 -63 13 -14 -4 -23 -2
-27 8 -4 10 19 24 86 50 51 19 95 35 99 36 4 0 37 -62 73 -137z m497 125 c6
-18 209 -18 223 0 15 19 47 4 40 -19 -4 -12 6 -30 34 -58 34 -34 45 -40 69
-35 21 4 31 2 35 -10 4 -10 1 -19 -8 -21 -8 -3 -22 -7 -30 -10 -8 -2 -15 -15
-15 -29 0 -13 -3 -31 -6 -39 -3 -10 3 -18 20 -23 22 -8 23 -11 11 -27 -10 -15
-18 -16 -33 -8 -16 8 -24 5 -43 -16 -13 -14 -39 -32 -57 -40 -25 -10 -32 -19
-30 -36 4 -29 -37 -38 -46 -10 -5 15 -17 19 -59 20 -28 1 -64 6 -80 12 -23 9
-29 8 -39 -9 -13 -20 -38 -26 -51 -13 -4 3 -1 16 7 28 14 21 12 25 -14 50 -20
19 -36 26 -56 23 -21 -2 -30 2 -32 15 -3 12 3 17 20 17 22 0 24 4 24 50 0 46
-2 50 -23 50 -17 0 -23 6 -23 21 0 18 4 20 30 14 26 -6 37 -1 69 28 36 32 38
36 22 51 -14 15 -14 18 -1 26 21 13 38 12 42 -2z m-856 -12 c7 -18 42 -359 38
-365 -2 -2 -48 0 -103 4 -87 6 -101 10 -101 25 0 22 67 328 75 340 10 16 85
12 91 -4z m-1700 -103 c-8 -129 1 -156 53 -161 37 -4 101 32 125 70 7 13 19
60 26 106 l12 82 48 0 48 0 6 -117 c4 -65 9 -142 13 -170 l5 -53 -39 0 c-22 0
-61 3 -87 6 l-48 7 7 33 c7 41 3 41 -39 9 -63 -48 -174 -49 -224 -2 -20 18
-52 74 -52 91 0 2 9 6 20 9 11 3 20 10 20 16 0 7 -10 9 -25 5 -20 -5 -25 -3
-25 14 0 12 9 23 23 27 21 7 20 8 -8 14 -39 8 -45 36 -10 45 14 4 23 11 20 16
-4 6 -17 7 -31 4 -19 -5 -24 -2 -24 14 0 19 14 22 179 41 11 1 12 -19 7 -106z
m145 67 c0 -3 -13 -34 -29 -70 -16 -36 -32 -73 -36 -82 -6 -19 -31 -24 -41 -8
-11 17 79 174 97 168 5 -2 9 -6 9 -8z m1184 -29 c0 -8 -8 -19 -17 -25 -14 -8
-21 -7 -34 6 -9 9 -13 21 -9 28 10 15 60 8 60 -9z m863 -3 c-3 -25 -34 -36
-50 -20 -17 17 -1 42 27 42 22 0 26 -4 23 -22z m-905 -72 c6 -15 -11 -36 -29
-36 -17 0 -37 27 -29 40 9 15 52 12 58 -4z m867 -5 c0 -21 -22 -33 -45 -25 -8
4 -15 15 -15 25 0 14 7 19 30 19 23 0 30 -5 30 -19z"/>
<path d="M415 3179 c4 -151 9 -276 11 -278 6 -6 97 16 137 33 33 13 34 16 41
84 7 70 7 71 38 74 43 4 48 26 6 30 -28 2 -34 7 -36 31 -3 25 -1 27 32 27 48
0 48 25 1 34 -29 6 -35 11 -35 31 0 21 5 25 30 25 20 0 30 5 30 15 0 10 -10
15 -34 15 -36 0 -46 12 -46 56 0 55 -14 63 -149 90 l-34 6 8 -273z m113 -1
c-2 -84 -6 -103 -18 -103 -12 0 -16 19 -21 91 -3 49 -9 96 -13 102 -5 8 2 12
24 12 l31 0 -3 -102z"/>
<path d="M2913 3115 c-17 -7 -34 -22 -37 -32 -11 -39 -18 -93 -11 -93 22 0
129 67 137 86 23 50 -20 69 -89 39z"/>
<path d="M1000 2975 c0 -21 27 -30 45 -15 19 16 10 30 -21 30 -15 0 -24 -6
-24 -15z"/>
<path d="M987 2904 c-4 -4 -7 -16 -7 -26 0 -14 8 -18 36 -18 31 0 35 3 32 23
-2 15 -11 23 -28 25 -14 2 -29 0 -33 -4z"/>
<path d="M1652 3095 c-41 -18 -67 -73 -58 -125 17 -111 180 -123 216 -16 19
60 -9 127 -62 145 -40 14 -56 13 -96 -4z"/>
<path d="M2487 3007 c-7 -20 1 -27 30 -27 18 0 24 5 21 18 -4 21 -43 28 -51 9z"/>
<path d="M2498 2929 c-26 -15 -22 -38 8 -45 18 -5 31 -1 42 10 16 16 16 18 -2
32 -23 16 -25 17 -48 3z"/>
<path d="M3465 3096 c-71 -31 -82 -146 -18 -196 39 -31 105 -27 143 8 60 53
46 158 -24 187 -43 18 -62 18 -101 1z"/>
<path d="M340 2324 c-11 -12 -11 -18 3 -31 21 -21 67 -10 67 16 0 31 -48 42
-70 15z"/>
<path d="M340 2219 c0 -15 5 -20 22 -17 34 5 37 38 4 38 -20 0 -26 -5 -26 -21z"/>
<path d="M3653 2333 c-7 -2 -13 -13 -13 -24 0 -26 46 -37 67 -16 28 28 -12 58
-54 40z"/>
<path d="M3645 2230 c-4 -7 -3 -16 3 -22 14 -14 47 -6 47 12 0 18 -40 26 -50
10z"/>
<path d="M1514 2166 c-48 -21 -53 -38 -10 -32 20 3 52 8 71 11 37 6 46 19 19
29 -23 9 -46 7 -80 -8z"/>
<path d="M2692 2115 c-77 -24 -74 -16 -46 -99 28 -82 31 -84 103 -70 31 6 31
7 31 73 0 116 -6 122 -88 96z"/>
<path d="M2844 2115 c-4 -9 -2 -21 4 -27 16 -16 47 -5 47 17 0 26 -42 34 -51
10z"/>
<path d="M2850 2025 c-19 -23 -4 -45 30 -45 18 0 33 6 36 15 8 19 -13 45 -36
45 -10 0 -23 -7 -30 -15z"/>
<path d="M1510 1175 c0 -21 27 -30 45 -15 19 16 10 30 -21 30 -15 0 -24 -6
-24 -15z"/>
<path d="M1497 1104 c-4 -4 -7 -16 -7 -26 0 -14 8 -18 36 -18 31 0 35 3 32 23
-2 15 -11 23 -28 25 -14 2 -29 0 -33 -4z"/>
<path d="M3583 1295 c-57 -24 -78 -95 -48 -160 41 -84 179 -71 204 20 16 60
-5 116 -54 140 -40 18 -60 18 -102 0z"/>
<path d="M2604 1195 c-4 -9 -2 -21 4 -27 16 -16 47 -5 47 17 0 26 -42 34 -51
10z"/>
<path d="M2590 1105 c-19 -23 -4 -45 30 -45 18 0 33 6 36 15 8 19 -13 45 -36
45 -10 0 -23 -7 -30 -15z"/>
<path d="M4092 1173 c2 -10 12 -18 23 -18 11 0 21 8 23 18 3 13 -3 17 -23 17
-20 0 -26 -4 -23 -17z"/>
<path d="M4077 1104 c-4 -4 -7 -16 -7 -26 0 -14 8 -18 36 -18 31 0 35 3 32 23
-2 15 -11 23 -28 25 -14 2 -29 0 -33 -4z"/>
</g>
</svg>
